<svg width="645" height="138" viewBox="0 0 645 138" fill="none" xmlns="http://www.w3.org/2000/svg">
  <g clip-path="url(#clip0_28_156)">
    <path
      d="M642.381 48.0402L625.504 49.0884C625.216 47.6325 624.595 46.3221 623.644 45.1575C622.69 43.9635 621.435 43.0173 619.878 42.3183C618.35 41.5902 616.516 41.2263 614.382 41.2263C611.525 41.2263 609.115 41.8377 607.153 43.0608C605.191 44.2548 604.21 45.8562 604.21 47.8656C604.21 49.467 604.847 50.8212 606.116 51.9276C607.385 53.0343 609.564 53.9223 612.652 54.5922L624.681 57.0381C631.143 58.3776 635.961 60.5325 639.136 63.5025C642.31 66.4728 643.897 70.3749 643.897 75.2085C643.897 79.6056 642.613 83.4639 640.045 86.7834C637.507 90.1032 634.014 92.6946 629.571 94.5585C625.157 96.393 620.065 97.3101 614.296 97.3101C605.494 97.3101 598.486 95.4612 593.263 91.7628C588.071 88.0356 585.027 82.9689 584.132 76.5627L602.264 75.6018C602.813 78.3099 604.139 80.3772 606.246 81.804C608.351 83.2017 611.05 83.9007 614.337 83.9007C617.568 83.9007 620.166 83.2746 622.128 82.0224C624.119 80.7411 625.13 79.0959 625.157 77.0868C625.13 75.3978 624.422 74.0148 623.037 72.9372C621.652 71.8308 619.518 70.9863 616.632 70.404L605.12 68.0889C598.628 66.7785 593.795 64.5072 590.624 61.275C587.479 58.0428 585.907 53.9223 585.907 48.9138C585.907 44.6043 587.06 40.8915 589.367 37.7757C591.706 34.6599 594.978 32.2575 599.19 30.5688C603.432 28.8797 608.395 28.0353 614.079 28.0353C622.476 28.0353 629.08 29.8261 633.898 33.4077C638.746 36.9894 641.573 41.8671 642.381 48.0402Z"
      fill="white" />
    <path
      d="M561.183 28.9089H579.617V99.3195C579.617 104.503 578.61 108.696 576.588 111.899C574.57 115.102 571.669 117.446 567.891 118.931C564.14 120.416 559.652 121.159 554.433 121.159C553.796 121.159 553.19 121.144 552.613 121.115C552.007 121.115 551.374 121.101 550.708 121.072V106.526C551.199 106.556 551.633 106.57 552.007 106.57C552.355 106.599 552.729 106.614 553.134 106.614C556.106 106.614 558.181 105.973 559.364 104.692C560.576 103.44 561.183 101.547 561.183 99.0138V28.9089ZM570.358 20.2605C567.645 20.2605 565.308 19.3432 563.347 17.5087C561.385 15.645 560.404 13.4174 560.404 10.8258C560.404 8.26329 561.385 6.0648 563.347 4.23027C565.308 2.36664 567.645 1.43481 570.358 1.43481C573.126 1.43481 575.477 2.36664 577.412 4.23027C579.373 6.0648 580.354 8.26329 580.354 10.8258C580.354 13.4174 579.373 15.645 577.412 17.5087C575.477 19.3432 573.126 20.2605 570.358 20.2605Z"
      fill="white" />
    <path
      d="M542.971 97.1355C540.115 97.1355 537.663 96.1161 535.615 94.0779C533.596 92.0103 532.586 89.5353 532.586 86.6523C532.586 83.7987 533.596 81.3528 535.615 79.3143C537.663 77.2761 540.115 76.2567 542.971 76.2567C545.741 76.2567 548.167 77.2761 550.241 79.3143C552.319 81.3528 553.359 83.7987 553.359 86.6523C553.359 88.5744 552.869 90.336 551.888 91.9377C550.934 93.51 549.68 94.7766 548.122 95.7378C546.565 96.6696 544.847 97.1355 542.971 97.1355Z"
      fill="white" />
    <path
      d="M497.259 95.9997V28.9087H515.132V40.6146H515.825C517.037 36.4506 519.07 33.3057 521.927 31.1799C524.783 29.0252 528.074 27.9478 531.795 27.9478C532.716 27.9478 533.712 28.006 534.779 28.1225C535.849 28.2389 536.786 28.3991 537.594 28.6029V45.1137C536.729 44.8515 535.531 44.6187 534.001 44.4147C532.473 44.211 531.073 44.109 529.804 44.109C527.093 44.109 524.667 44.706 522.533 45.8997C520.426 47.0646 518.752 48.6954 517.513 50.7918C516.3 52.8885 515.697 55.3053 515.697 58.0425V95.9997H497.259Z"
      fill="white" />
    <path
      d="M462.031 97.3101C455.195 97.3101 449.306 95.9124 444.375 93.117C439.471 90.2925 435.69 86.3031 433.036 81.1488C430.381 75.9657 429.056 69.8361 429.056 62.76C429.056 55.8588 430.381 49.8021 433.036 44.5896C435.69 39.3774 439.426 35.3151 444.244 32.4033C449.092 29.4912 454.776 28.0353 461.294 28.0353C465.681 28.0353 469.762 28.7487 473.543 30.1755C477.351 31.5732 480.668 33.6843 483.497 36.5091C486.351 39.3336 488.574 42.8862 490.161 47.1666C491.749 51.4182 492.542 56.3976 492.542 62.1048V67.2153H436.412V55.6842H475.187C475.187 53.0052 474.61 50.6319 473.457 48.5643C472.301 46.497 470.701 44.8809 468.653 43.716C466.632 42.522 464.281 41.9253 461.597 41.9253C458.8 41.9253 456.318 42.5805 454.154 43.8906C452.02 45.1719 450.347 46.9047 449.134 49.0884C447.924 51.2433 447.303 53.6457 447.273 56.2956V67.2591C447.273 70.5786 447.88 73.4469 449.092 75.8637C450.332 78.2808 452.077 80.1444 454.327 81.4548C456.577 82.7649 459.246 83.4201 462.334 83.4201C464.382 83.4201 466.258 83.1291 467.961 82.5465C469.661 81.9642 471.118 81.0906 472.33 79.926C473.543 78.7611 474.464 77.3343 475.1 75.6453L492.15 76.7811C491.285 80.916 489.51 84.5268 486.829 87.6135C484.175 90.6708 480.742 93.0588 476.527 94.7769C472.345 96.4656 467.512 97.3101 462.031 97.3101Z"
      fill="white" />
    <path
      d="M396.509 97.3101C389.672 97.3101 383.787 95.9124 378.853 93.117C373.948 90.2925 370.168 86.3031 367.513 81.1488C364.859 75.9657 363.533 69.8361 363.533 62.76C363.533 55.8588 364.859 49.8021 367.513 44.5896C370.168 39.3774 373.904 35.3151 378.722 32.4033C383.57 29.4912 389.253 28.0353 395.774 28.0353C400.159 28.0353 404.24 28.7487 408.02 30.1755C411.828 31.5732 415.148 33.6843 417.975 36.5091C420.831 39.3336 423.052 42.8862 424.639 47.1666C426.226 51.4182 427.02 56.3976 427.02 62.1048V67.2153H370.89V55.6842H409.664C409.664 53.0052 409.088 50.6319 407.934 48.5643C406.781 46.497 405.179 44.8809 403.131 43.716C401.11 42.522 398.759 41.9253 396.078 41.9253C393.278 41.9253 390.796 42.5805 388.632 43.8906C386.498 45.1719 384.824 46.9047 383.612 49.0884C382.402 51.2433 381.781 53.6457 381.751 56.2956V67.2591C381.751 70.5786 382.357 73.4469 383.57 75.8637C384.809 78.2808 386.554 80.1444 388.807 81.4548C391.057 82.7649 393.724 83.4201 396.812 83.4201C398.86 83.4201 400.735 83.1291 402.438 82.5465C404.142 81.9642 405.598 81.0906 406.808 79.926C408.02 78.7611 408.945 77.3343 409.578 75.6453L426.63 76.7811C425.762 80.916 423.991 84.5268 421.307 87.6135C418.653 90.6708 415.219 93.0588 411.008 94.7769C406.823 96.4656 401.99 97.3101 396.509 97.3101Z"
      fill="white" />
    <path
      d="M316.154 57.2127V95.9997H297.717V28.9088H315.289V40.746H316.068C317.539 36.8439 320.006 33.7572 323.466 31.4859C326.929 29.1855 331.129 28.0353 336.06 28.0353C340.676 28.0353 344.7 29.0545 348.134 31.0929C351.57 33.1311 354.236 36.0432 356.141 39.8286C358.046 43.5849 358.997 48.0693 358.997 53.2818V95.9997H340.563V56.6013C340.59 52.4955 339.552 49.2924 337.445 46.992C335.341 44.6625 332.44 43.4976 328.748 43.4976C326.266 43.4976 324.072 44.0364 322.17 45.1137C320.295 46.1913 318.823 47.7636 317.756 49.8312C316.716 51.8694 316.184 54.33 316.154 57.2127Z"
      fill="white" />
    <path
      d="M260.325 97.3101C253.603 97.3101 247.79 95.8686 242.885 92.9859C238.009 90.0741 234.244 86.0265 231.59 80.8431C228.935 75.6309 227.608 69.5886 227.608 62.7165C227.608 55.7859 228.935 49.7292 231.59 44.5458C234.244 39.3336 238.009 35.286 242.885 32.4033C247.79 29.4912 253.603 28.0353 260.325 28.0353C267.047 28.0353 272.847 29.4912 277.722 32.4033C282.627 35.286 286.406 39.3336 289.061 44.5458C291.715 49.7292 293.042 55.7859 293.042 62.7165C293.042 69.5886 291.715 75.6309 289.061 80.8431C286.406 86.0265 282.627 90.0741 277.722 92.9859C272.847 95.8686 267.047 97.3101 260.325 97.3101ZM260.412 82.896C263.47 82.896 266.023 82.0224 268.072 80.2752C270.12 78.4992 271.664 76.0821 272.702 73.0245C273.77 69.9672 274.304 66.4872 274.304 62.5854C274.304 58.6833 273.77 55.2036 272.702 52.146C271.664 49.0884 270.12 46.6716 268.072 44.8953C266.023 43.119 263.47 42.231 260.412 42.231C257.325 42.231 254.728 43.119 252.622 44.8953C250.545 46.6716 248.972 49.0884 247.905 52.146C246.866 55.2036 246.347 58.6833 246.347 62.5854C246.347 66.4872 246.866 69.9672 247.905 73.0245C248.972 76.0821 250.545 78.4992 252.622 80.2752C254.728 82.0224 257.325 82.896 260.412 82.896Z"
      fill="white" />
    <path
      d="M190.832 95.9997V28.9087H208.706V40.6146H209.398C210.61 36.4506 212.644 33.3057 215.5 31.1799C218.356 29.0252 221.645 27.9478 225.367 27.9478C226.29 27.9478 227.285 28.006 228.353 28.1225C229.421 28.2389 230.358 28.3991 231.166 28.6029V45.1137C230.3 44.8515 229.103 44.6187 227.574 44.4147C226.045 44.211 224.646 44.109 223.376 44.109C220.664 44.109 218.241 44.706 216.106 45.8997C214 47.0646 212.326 48.6954 211.086 50.7918C209.874 52.8885 209.268 55.3053 209.268 58.0425V95.9997H190.832Z"
      fill="white" />
    <path
      d="M186.135 28.9088V42.8862H146.104V28.9088H186.135ZM155.193 12.835H173.628V75.3834C173.628 77.1012 173.888 78.4407 174.407 79.4016C174.927 80.3334 175.648 80.9886 176.571 81.3672C177.523 81.7458 178.62 81.9351 179.86 81.9351C180.726 81.9351 181.591 81.8622 182.457 81.7167C183.322 81.5421 183.986 81.411 184.447 81.3237L187.347 95.1699C186.424 95.4609 185.125 95.796 183.452 96.1746C181.779 96.582 179.745 96.8295 177.35 96.9171C172.907 97.0917 169.012 96.4947 165.665 95.1261C162.348 93.7575 159.765 91.6317 157.919 88.749C156.072 85.8663 155.164 82.2264 155.193 77.8293V12.835Z"
      fill="white" />
    <path
      d="M144.967 48.0402L128.089 49.0884C127.801 47.6325 127.18 46.3221 126.228 45.1575C125.276 43.9635 124.021 43.0173 122.463 42.3183C120.934 41.5902 119.102 41.2263 116.967 41.2263C114.111 41.2263 111.702 41.8377 109.74 43.0608C107.778 44.2548 106.797 45.8562 106.797 47.8656C106.797 49.467 107.432 50.8212 108.702 51.9276C109.971 53.0343 112.149 53.9223 115.236 54.5922L127.267 57.0381C133.73 58.3776 138.548 60.5325 141.721 63.5025C144.895 66.4728 146.482 70.3749 146.482 75.2085C146.482 79.6056 145.198 83.4639 142.63 86.7834C140.091 90.1032 136.6 92.6946 132.157 94.5585C127.743 96.393 122.651 97.3101 116.881 97.3101C108.081 97.3101 101.07 95.4612 95.8485 91.7628C90.6552 88.0356 87.6115 82.9689 86.7172 76.5627L104.85 75.6018C105.398 78.3099 106.725 80.3772 108.831 81.804C110.937 83.2017 113.635 83.9007 116.924 83.9007C120.155 83.9007 122.752 83.2746 124.714 82.0224C126.704 80.7411 127.714 79.0959 127.743 77.0868C127.714 75.3978 127.007 74.0148 125.623 72.9372C124.238 71.8308 122.103 70.9863 119.218 70.404L107.706 68.0889C101.215 66.7785 96.3821 64.5072 93.2085 61.275C90.0637 58.0428 88.4914 53.9223 88.4914 48.9138C88.4914 44.6043 89.6455 40.8915 91.9536 37.7757C94.2904 34.6599 97.565 32.2575 101.777 30.5688C106.018 28.8797 110.981 28.0353 116.664 28.0353C125.06 28.0353 131.667 29.8261 136.485 33.4077C141.332 36.9894 144.159 41.8671 144.967 48.0402Z"
      fill="white" />
    <path
      d="M20.8064 102L2.89941 95.9994L33.4957 6.54492L45.2237 0H45.9163L57.644 6.54492L88.1973 95.9994L69.8502 102L45.9163 26.9867H45.2237L20.8064 102ZM28.6186 77.9997L45.2237 71.9997H45.9163L62.1926 77.9997L69.8502 102L45.9163 95.5197H45.2237L20.8064 102L28.6186 77.9997Z"
      fill="white" />
    <path
      d="M45.2238 102L25.265 108L32.6959 124.5L31.2097 112.5L37.1544 127.5L41.6129 132L40.1268 123L45.2238 138H45.9163L54.9885 130.5L57.9609 118.5L59.447 124.5L66.8779 108L45.9163 102H45.2238Z"
      fill="#1269F4" />
  </g>
  <defs>
    <clipPath id="clip0_28_156">
      <rect width="645" height="138" fill="white" />
    </clipPath>
  </defs>
</svg>
  